<?xml version="1.0" standalone="no"?>
<!DOCTYPE svg PUBLIC "-//W3C//DTD SVG 20010904//EN"
 "http://www.w3.org/TR/2001/REC-SVG-20010904/DTD/svg10.dtd">
<svg version="1.0" xmlns="http://www.w3.org/2000/svg"
 width="512.000000pt" height="512.000000pt" viewBox="0 0 512.000000 512.000000"
 preserveAspectRatio="xMidYMid meet">

<g transform="translate(0.000000,512.000000) scale(0.100000,-0.100000)"
fill="#000000" stroke="none">
<path d="M2430 5114 c-305 -35 -526 -111 -747 -257 -344 -227 -576 -550 -681
-947 -35 -131 -46 -230 -46 -410 0 -141 4 -196 22 -286 29 -148 20 -121 356
-1008 189 -501 305 -793 324 -820 36 -49 108 -101 165 -118 61 -19 1413 -19
1474 0 57 17 129 69 165 118 18 26 136 323 324 819 335 886 327 861 356 1009
18 90 22 145 22 286 0 180 -11 279 -46 410 -105 397 -337 720 -681 947 -186
123 -376 197 -612 239 -80 14 -329 26 -395 18z m246 -470 c106 -78 103 -224
-4 -287 -21 -13 -66 -22 -133 -28 -215 -18 -378 -87 -526 -222 -160 -147 -252
-338 -271 -565 -13 -149 -42 -198 -133 -222 -74 -20 -166 26 -195 97 -37 87
-2 324 75 518 143 357 469 628 851 709 115 24 119 24 217 23 75 -2 96 -6 119
-23z"/>
<path d="M1815 1026 c-59 -27 -77 -46 -104 -106 -49 -107 -2 -233 104 -281 37
-17 84 -19 745 -19 790 0 750 -3 817 73 57 65 68 150 29 232 -27 59 -46 77
-106 104 -44 20 -63 21 -740 21 l-695 0 -50 -24z"/>
<path d="M1870 431 c-204 -42 -244 -308 -61 -403 l53 -28 698 0 698 0 53 28
c159 83 156 299 -5 385 -41 22 -42 22 -721 24 -374 0 -696 -2 -715 -6z"/>
</g>
</svg>
