<?xml version="1.0" standalone="no"?>
<!DOCTYPE svg PUBLIC "-//W3C//DTD SVG 20010904//EN"
 "http://www.w3.org/TR/2001/REC-SVG-20010904/DTD/svg10.dtd">
<svg version="1.0" xmlns="http://www.w3.org/2000/svg"
 width="512.000000pt" height="512.000000pt" viewBox="0 0 512.000000 512.000000"
 preserveAspectRatio="xMidYMid meet">

<g transform="translate(0.000000,512.000000) scale(0.100000,-0.100000)"
fill="#000000" stroke="none">
<path d="M2420 5109 c-14 -6 -39 -24 -57 -41 -43 -42 -57 -107 -51 -242 5
-115 14 -137 72 -180 25 -19 42 -21 176 -21 134 0 151 2 176 21 58 43 67 65
72 180 6 135 -8 200 -51 242 -18 17 -45 36 -60 41 -35 14 -243 13 -277 0z"/>
<path d="M1648 4902 c-48 -6 -230 -123 -252 -161 -36 -62 -27 -114 36 -227 77
-135 101 -157 181 -162 61 -3 64 -2 167 60 121 73 150 107 150 176 0 45 -40
131 -108 235 -40 59 -104 89 -174 79z"/>
<path d="M3405 4900 c-66 -15 -93 -45 -173 -191 -77 -140 -57 -197 103 -294
96 -57 103 -60 167 -60 60 0 70 3 98 30 17 17 57 75 88 129 47 83 56 107 55
146 -1 86 -32 119 -193 207 -62 34 -101 43 -145 33z"/>
<path d="M2439 4479 c-550 -45 -1035 -426 -1208 -949 -49 -148 -62 -223 -68
-391 -11 -307 54 -527 305 -1033 223 -451 298 -642 334 -851 21 -127 28 -146
62 -183 48 -53 28 -52 696 -52 668 0 648 -1 696 52 34 37 41 56 62 184 38 222
89 354 340 870 201 414 260 573 293 786 15 98 6 356 -15 453 -121 545 -526
959 -1062 1084 -73 17 -311 45 -334 39 -3 0 -48 -4 -101 -9z m359 -518 c154
-45 270 -111 390 -225 165 -157 263 -367 279 -596 13 -212 -41 -373 -306 -908
-151 -307 -177 -365 -247 -567 l-52 -150 -303 0 -304 0 -32 95 c-63 185 -108
288 -251 585 -288 596 -333 730 -319 945 28 415 341 767 749 839 89 16 312 6
396 -18z"/>
<path d="M879 4221 c-19 -11 -40 -26 -46 -33 -30 -35 -116 -197 -120 -225 -8
-48 5 -99 33 -133 32 -37 209 -139 257 -147 52 -8 118 25 155 79 52 76 112
197 112 228 0 76 -33 113 -163 187 -115 65 -169 76 -228 44z"/>
<path d="M4053 4199 c-154 -81 -192 -117 -200 -190 -4 -36 1 -55 29 -109 70
-134 106 -180 155 -202 62 -27 95 -20 213 47 108 61 146 97 156 151 10 56 -1
93 -56 189 -64 111 -65 112 -111 136 -58 29 -98 24 -186 -22z"/>
<path d="M595 3286 c-37 -16 -82 -67 -93 -104 -4 -15 -7 -79 -7 -142 0 -133
14 -169 83 -208 36 -20 54 -22 173 -22 150 0 181 10 219 72 17 29 20 51 20
174 0 130 -2 144 -23 175 -38 58 -75 69 -217 69 -81 -1 -136 -5 -155 -14z"/>
<path d="M4210 3282 c-19 -9 -45 -32 -57 -51 -21 -31 -23 -45 -23 -175 0 -123
3 -145 20 -174 38 -62 69 -72 219 -72 119 0 137 2 173 22 21 12 49 38 61 58
20 31 22 49 22 160 0 133 -8 161 -57 207 -38 36 -73 43 -201 43 -96 0 -129 -4
-157 -18z"/>
<path d="M979 2421 c-53 -17 -219 -123 -241 -154 -18 -25 -23 -45 -23 -92 0
-55 5 -68 57 -157 72 -120 101 -143 183 -143 54 0 69 5 142 48 172 101 186
166 80 377 -45 90 -71 114 -137 124 -19 3 -47 1 -61 -3z"/>
<path d="M4030 2408 c-41 -21 -50 -33 -97 -128 -64 -128 -72 -172 -45 -231 24
-54 46 -74 142 -130 66 -39 82 -44 135 -44 82 0 111 23 183 143 53 90 57 102
57 158 0 82 -25 113 -152 186 -120 70 -161 78 -223 46z"/>
<path d="M1988 800 c-58 -31 -83 -74 -83 -146 0 -50 5 -66 27 -96 53 -70 36
-68 628 -68 592 0 575 -2 628 68 22 30 27 46 27 96 0 73 -25 115 -85 146 -38
19 -60 20 -572 20 -508 -1 -535 -2 -570 -20z"/>
<path d="M2130 308 c-50 -26 -90 -89 -90 -143 0 -54 40 -117 90 -143 44 -22
50 -22 430 -22 380 0 386 0 430 23 50 25 90 88 90 142 0 54 -40 117 -90 143
-44 22 -50 22 -430 22 -380 0 -386 0 -430 -22z"/>
</g>
</svg>
